<svg width="40" height="40" viewBox="0 0 40 40" fill="none" xmlns="http://www.w3.org/2000/svg">
<path d="M15.3648 24.0004L0 0.000366211H8.44772L19 17.0004L29.4934 0.000366211H38L22.694 24.0004V40.0004H15.3648V24.0004Z" fill="white"/>
<path d="M37.5 40.0008C36.7222 40.0008 36.1482 39.7583 35.6667 39.2785C35.2222 38.7619 35 38.1651 35 37.5008C35 36.7626 35.2222 36.1659 35.6667 35.723C36.1482 35.2432 36.7307 34.984 37.5 35.0008C38.2291 35.0167 38.6987 35.2153 39.2222 35.723C39.7662 36.2506 40 36.7626 40 37.5008C40 38.1651 39.7407 38.7619 39.2222 39.2785C38.7407 39.7583 38.1296 40.0008 37.5 40.0008Z" fill="white"/>
</svg>
