<svg width="350" height="350" viewBox="0 0 350 350" fill="none" xmlns="http://www.w3.org/2000/svg">
<path d="M0 175C0 78.3502 78.3502 0 175 0C271.65 0 350 78.3502 350 175C350 271.65 271.65 350 175 350C78.3502 350 0 271.65 0 175Z" fill="#ED1A57"/>
<path d="M154.721 192.5L87.5 87.5002H124.459L170.625 161.875L216.534 87.5002H253.75L186.786 192.5V262.5H154.721V192.5Z" fill="white"/>
<path d="M251.562 262.502C248.16 262.502 245.648 261.441 243.542 259.342C241.597 257.082 240.625 254.471 240.625 251.564C240.625 248.335 241.597 245.724 243.542 243.787C245.648 241.688 248.197 240.554 251.562 240.627C254.753 240.697 256.807 241.565 259.097 243.787C261.477 246.095 262.5 248.335 262.5 251.564C262.5 254.471 261.366 257.082 259.097 259.342C256.991 261.441 254.317 262.502 251.562 262.502Z" fill="white"/>
</svg>
